# xmcd
#
# Track frame offsets:
#	150
#	18892
#	38346
#	56859
#	73511
#	87233
#	103970
#	128003
#	139419
#	158194
#	174113
#
# Disc length: 2503 seconds
#
# Revision: 0
# Processed by: cddbd v1.5.2PL0 Copyright (c) Steve Scherf et al.
# Submitted via: dBpowerAMP V4.0
#
DISCID=8b09c50b
DTITLE=Paul Eason - The Mountains of Nuevo Leon
DYEAR=1900
DGENRE=Country
TTITLE0=Mountains of Nuevo León (w/Owen Temple)
TTITLE1=Maybe Tonight
TTITLE2=Already Stolen
TTITLE3=Smolder
TTITLE4=Tonight We Ride
TTITLE5=Small Town blues
TTITLE6=Sweet Red Llano Wine
TTITLE7=Live It Up
TTITLE8=Peanut Butter
TTITLE9=If You Were Really here
TTITLE10=Just time
EXTD=Paul Eason
EXTT0=
EXTT1=
EXTT2=
EXTT3=
EXTT4=
EXTT5=
EXTT6=
EXTT7=
EXTT8=
EXTT9=
EXTT10=
PLAYORDER=
